#!OML:ASF F:\VICON\USERDATA\INSTALL\rory3\rory3.ASF
:FULLY-SPECIFIED
:DEGREES
236
root -2.66817 14.5503 41.035 22.2665 13.0961 -13.1739
lowerback -7.50175 3.38286 15.7393
upperback -8.1149 4.01227 3.87915
thorax -3.79507 1.38635 -4.42502
lowerneck -9.22501 -9.10496 -9.46167
upperneck 9.66865 -11.8596 7.48927
head 5.43225 -5.70827 2.88294
rclavicle -5.77966e-014 -5.20816e-014
rhumerus -29.6039 -13.1623 -51.3663
rradius 29.4283
rwrist -3.53336
rhand -23.4572 -55.1794
rfingers 7.12502
rthumb 3.00153 634.862
lclavicle -5.77966e-014 -5.20816e-014
lhumerus -63.7548 9.31117 66.8321
lradius 41.6003
lwrist 33.1811
lhand -30.7201 -40.2059
lfingers 7.12502
lthumb -4.01281 -10.264
rfemur -43.0861 -3.42927 48.6725
rtibia 62.5438
rfoot -35.5823 -29.1622
rtoes -9.16609
lfemur -56.7039 -4.70617 5.42279
ltibia 114.17
lfoot -18.2681 6.88763
ltoes -10.872
237
root -2.72297 14.5749 41.3249 22.0284 11.4019 -11.5724
lowerback -5.52977 3.62872 13.4361
upperback -8.51289 4.82037 3.20862
thorax -5.2191 1.77895 -3.98252
lowerneck -8.94522 -9.58364 -9.93752
upperneck 10.2861 -12.534 7.68645
head 5.6798 -6.04474 2.9453
rclavicle 1.66234e-014 5.88403e-014
rhumerus -28.1298 -11.1883 -55.2139
rradius 30.6128
rwrist -3.3816
rhand -22.317 -54.789
rfingers 7.12502
rthumb 4.1027 635.271
lclavicle 1.66234e-014 5.88403e-014
lhumerus -62.8289 6.81798 70.358
lradius 45.4495
lwrist 30.7024
lhand -34.975 -34.154
lfingers 7.12502
lthumb -8.12061 -4.33003
rfemur -40.464 -1.76391 46.4118
rtibia 61.5329
rfoot -36.0765 -28.911
rtoes -7.7927
lfemur -59.2694 -4.61176 3.13896
ltibia 112.918
lfoot -20.5135 12.5135
ltoes -26.6798
238
root -2.74157 14.623 41.7547 22.0564 11.8244 -12.4079
lowerback -6.77233 4.05139 14.6407
upperback -8.63076 5.12952 3.09258
thorax -4.53654 1.90466 -4.65464
lowerneck -8.58025 -9.86485 -10.1219
upperneck 10.7881 -12.9441 7.5899
head 5.81827 -6.2635 2.90634
rclavicle 3.42158e-014 -4.09496e-014
rhumerus -26.6313 -9.5788 -58.8464
rradius 31.4036
rwrist -2.37157
rhand -22.3911 -53.5378
rfingers 7.12502
rthumb 4.03113 636.521
lclavicle 3.42158e-014 -4.09496e-014
lhumerus -61.9238 4.63353 73.0094
lradius 48.9757
lwrist 27.0627
lhand -36.3319 -30.8257
lfingers 7.12502
lthumb -9.43003 -1.05665
rfemur -37.5937 -1.74035 47.176
rtibia 59.7097
rfoot -35.7918 -29.3387
rtoes -10.6426
lfemur -61.8531 -4.88744 4.12563
ltibia 111.375
lfoot -17.7347 11.8375
ltoes -8.77248
239
root -2.79848 14.6963 42.1054 21.7589 9.98385 -10.9333
lowerback -5.35021 4.45955 12.6659
upperback -8.89803 5.97568 2.33388
thorax -5.50781 2.34015 -4.46806
lowerneck -4.57611 -9.08143 -11.3172
upperneck 7.55494 -12.2312 10.1123
head 4.32568 -5.95663 4.17235
rclavicle -2.19906e-014 -5.00937e-014
rhumerus -25.4082 -7.29266 -62.4874
rradius 32.3347
rwrist -1.57076
rhand -24.0278 -54.4603
rfingers 7.12502
rthumb 2.45055 635.574
lclavicle -2.19906e-014 -5.00937e-014
lhumerus -61.2344 2.74054 74.7954
lradius 52.4173
lwrist 22.0789
lhand -31.8318 -30.9617
lfingers 7.12502
lthumb -5.08636 -1.04274
rfemur -34.4349 0.230397 44.9815
rtibia 58.1482
rfoot -34.4582 -29.7923
rtoes -13.6603
lfemur -63.6386 -4.3951 1.91474
ltibia 109.555
lfoot -18.5336 14.281
ltoes -9.02821
240
root -2.82789 14.7783 42.5048 22.2359 9.14376 -10.3193
lowerback -7.12206 4.84098 11.9684
upperback -8.28221 6.13322 2.03889
thorax -3.82432 2.56888 -4.21584
lowerneck -6.78696 -9.71388 -11.1829
upperneck 9.22128 -12.9008 9.25455
head 5.21015 -6.24418 3.69382
rclavicle 3.13086e-015 2.94201e-014
rhumerus -22.2923 -4.35727 -66.1379
rradius 33.1462
rwrist -1.07196
rhand -21.0433 -54.5468
rfingers 7.12502
rthumb 5.33257 635.54
lclavicle 3.13086e-015 2.94201e-014
lhumerus -59.4116 2.3339 75.9746
lradius 55.9444
lwrist 16.6629
lhand -30.6623 -32.032
lfingers 7.12502
lthumb -3.95702 -2.08898
rfemur -31.9378 1.42309 43.8836
rtibia 56.1436
rfoot -33.3068 -28.9623
rtoes -16.0372
lfemur -66.2415 -4.0503 0.811891
ltibia 107.699
lfoot -19.1752 15.6877
ltoes -7.7731
241
root -2.81579 14.8702 42.8638 21.9426 8.94111 -10.1718
lowerback -6.40033 5.11813 13.0486
upperback -8.57429 6.58894 1.38303
thorax -4.31748 2.68047 -5.53058
lowerneck -6.60508 -10.0086 -11.5436
upperneck 9.7275 -13.369 9.64298
head 5.4373 -6.46601 3.81845
rclavicle 1.36664e-014 -1.11319e-014
rhumerus -20.8685 0.980906 -69.8147
rradius 33.6638
rwrist -2.16136
rhand -22.741 -52.7584
rfingers 7.12502
rthumb 3.69326 637.294
lclavicle 1.36664e-014 -1.11319e-014
lhumerus -58.957 0.892431 76.7236
lradius 59.7001
lwrist 11.7014
lhand -29.6182 -34.0039
lfingers 7.12502
lthumb -2.94876 -4.04453
rfemur -28.9378 1.42199 43.393
rtibia 54.2229
rfoot -31.6155 -28.4208
rtoes -18.4353
lfemur -68.5103 -4.28376 0.169239
ltibia 105.84
lfoot -20.0957 16.4595
ltoes -6.75199
242
root -2.79285 14.9547 43.2257 21.7023 8.94513 -10.4955
lowerback -7.78775 5.28221 14.3984
upperback -7.48348 6.38758 1.32167
thorax -2.28855 2.69061 -6.15704
lowerneck -6.25487 -9.67484 -11.9182
upperneck 8.09798 -12.8956 10.5244
head 4.91087 -6.22479 4.23872
rclavicle -3.67752e-015 4.37326e-015
rhumerus -17.2537 5.48879 -72.7421
rradius 34.508
rwrist -2.21113
rhand -24.4364 -52.0737
rfingers 7.12502
rthumb 2.05592 637.957
lclavicle -3.67752e-015 4.37326e-015
lhumerus -56.9202 0.672984 77.6595
lradius 63.3943
lwrist 8.11712
lhand -29.7128 -35.3768
lfingers 7.12502
lthumb -3.04013 -5.4187
rfemur -26.1512 0.678152 43.4818
rtibia 52.3098
rfoot -28.4497 -28.7879
rtoes -24.0023
lfemur -70.8792 -4.28702 0.0154526
ltibia 103.863
lfoot -20.7158 16.6795
ltoes -4.97325
243
root -2.87017 15.0798 43.6794 21.7942 7.36634 -8.98475
lowerback -8.3157 5.51468 12.0258
upperback -7.56287 6.73385 0.705528
thorax -2.12559 2.95256 -5.43924
lowerneck -6.76806 -9.94959 -11.9322
upperneck 9.42523 -13.2811 10.23
head 5.42961 -6.40228 4.06457
rclavicle 1.03368e-014 6.22196e-014
rhumerus -16.1884 7.89022 -75.5026
rradius 36.1434
rwrist 0.0828226
rhand -21.8251 -51.8701
rfingers 7.12502
rthumb 4.57766 638.199
lclavicle 1.03368e-014 6.22196e-014
lhumerus -56.6453 -1.00426 78.2672
lradius 66.9294
lwrist 5.86086
lhand -30.0558 -35.9405
lfingers 7.12502
lthumb -3.37136 -5.98738
rfemur -23.3671 2.5835 41.7851
rtibia 50.4878
rfoot -25.0806 -28.969
rtoes -26.1603
lfemur -71.667 -3.08197 -2.266
ltibia 100.836
lfoot -20.8786 15.7561
ltoes -3.87954
